<svg xmlns="http://www.w3.org/2000/svg" version="1.1" xmlns:xlink="http://www.w3.org/1999/xlink" xmlns:svgjs="http://svgjs.dev/svgjs" width="1440" height="900" preserveAspectRatio="none" viewBox="0 0 1440 900"><g mask="url(&quot;#SvgjsMask1007&quot;)" fill="none"><rect width="1440" height="900" x="0" y="0" fill="rgba(27, 27, 30, 1)"></rect><path d="M0,572.381C111.337,566.315,217.926,543.642,318.675,495.868C431.202,442.508,549.318,386.689,614.882,280.807C684.08,169.057,727.611,26.211,686.877,-98.758C647.051,-220.941,514.205,-281.124,408.091,-353.613C325.356,-410.132,229.235,-429.719,138.911,-473.089C26.41,-527.107,-64.289,-657.288,-187.85,-639.757C-309.818,-622.452,-367.9,-481.779,-449.611,-389.59C-532.348,-296.243,-650.999,-219.616,-669.563,-96.269C-688.147,27.209,-603.525,138.536,-545.759,249.24C-490.904,354.365,-443.834,471.441,-341.802,531.854C-241.036,591.517,-116.931,578.752,0,572.381" fill="#161618"></path><path d="M1440 1466.153C1544.413 1456.993 1604.141 1345.039 1678.602 1271.272 1737.9940000000001 1212.433 1783.5430000000001 1147.354 1831.159 1078.636 1889.913 993.845 2004.6100000000001 923.037 1990.732 820.817 1976.877 718.771 1833.9560000000001 694.865 1768.285 615.539 1700.3229999999999 533.446 1698.659 393.95 1601.354 350.47799999999995 1504.545 307.22799999999995 1393.631 366.697 1294.297 403.783 1200.954 438.632 1109.1399999999999 481.496 1045.372 558.053 982.288 633.789 962.137 731.999 940.7629999999999 828.221 917.751 931.817 870.657 1043.362 916.285 1139.173 961.841 1234.8319999999999 1083.011 1259.526 1172.885 1315.6390000000001 1261.368 1370.883 1336.086 1475.269 1440 1466.153" fill="#202024"></path></g><defs><mask id="SvgjsMask1007"><rect width="1440" height="900" fill="#ffffff"></rect></mask></defs></svg>